<?xml version="1.0" standalone="no"?>
<!DOCTYPE svg PUBLIC "-//W3C//DTD SVG 20010904//EN"
 "http://www.w3.org/TR/2001/REC-SVG-20010904/DTD/svg10.dtd">
<svg version="1.0" xmlns="http://www.w3.org/2000/svg"
 width="3464.000000pt" height="3464.000000pt" viewBox="0 0 3464.000000 3464.000000"
 preserveAspectRatio="xMidYMid meet">

<g transform="translate(0.000000,3464.000000) scale(0.100000,-0.100000)"
fill="#000000" stroke="none">
<path d="M24961 19289 c-261 -25 -516 -119 -764 -282 -457 -299 -784 -823
-872 -1397 -23 -146 -23 -431 -1 -575 89 -571 402 -1067 873 -1383 464 -311
1017 -391 1528 -221 184 61 411 188 560 312 316 265 545 601 669 984 244 756
4 1634 -581 2123 -135 112 -223 169 -398 255 -315 155 -662 218 -1014 184z
m396 -50 c128 -17 232 -48 348 -104 518 -250 861 -878 915 -1673 27 -414 -61
-887 -231 -1237 -100 -206 -211 -357 -367 -499 -174 -157 -320 -234 -537 -283
-103 -23 -123 -25 -310 -20 -206 5 -289 18 -427 66 -315 109 -596 373 -768
720 -351 709 -327 1709 58 2360 131 222 318 412 529 535 103 60 240 107 382
131 95 16 305 18 408 4z"/>
<path d="M1250 19229 c0 -13 36 -59 93 -118 118 -126 207 -251 301 -426 224
-421 531 -1020 756 -1475 140 -283 346 -693 459 -910 233 -449 413 -816 433
-878 l13 -42 155 0 155 0 173 320 c96 176 339 616 540 978 202 362 441 796
532 965 91 168 167 307 170 307 8 0 558 -1003 1104 -2018 l298 -552 157 2 156
3 270 810 c149 446 351 1060 449 1365 360 1127 387 1204 468 1327 61 94 178
212 271 273 50 33 67 50 67 67 l0 23 -330 0 -330 0 0 -22 c0 -16 13 -31 44
-51 58 -36 109 -93 142 -159 45 -87 44 -181 -1 -343 -103 -374 -513 -1625
-919 -2810 -59 -170 -109 -311 -111 -313 -2 -2 -25 38 -51 89 -94 189 -231
441 -404 744 -318 557 -1070 1927 -1070 1949 0 2 31 62 70 132 38 70 84 167
102 214 29 79 32 94 32 215 1 112 -2 136 -20 175 -51 109 -154 171 -296 178
-202 10 -334 -63 -412 -228 -30 -63 -31 -69 -31 -200 1 -127 3 -141 35 -235
29 -86 173 -384 265 -551 l29 -51 -144 -269 c-473 -889 -1197 -2191 -1211
-2177 -3 5 -13 28 -21 53 -44 129 -419 893 -1025 2085 -296 582 -547 1109
-569 1198 -24 90 -14 184 26 274 18 40 30 79 27 88 -6 13 -58 15 -427 15
l-420 0 0 -21z m4050 -51 c50 -26 80 -70 105 -156 25 -84 20 -172 -14 -289
-47 -158 -143 -363 -169 -363 -4 0 -18 21 -31 48 -13 26 -52 95 -87 154 -107
178 -142 281 -130 382 11 93 75 191 151 230 44 23 122 20 175 -6z"/>
<path d="M8915 19064 c-220 -35 -392 -121 -436 -218 -35 -78 -21 -185 34 -258
47 -62 123 -98 203 -98 72 0 114 14 162 55 106 89 123 262 36 364 -19 22 -58
51 -86 64 l-52 25 44 14 c69 20 348 18 428 -5 172 -47 315 -125 439 -241 91
-86 141 -152 195 -261 53 -107 72 -185 73 -300 0 -149 -15 -173 -261 -392
-132 -117 -118 11 -125 -1173 -4 -792 -8 -1036 -18 -1074 -9 -34 -27 -63 -62
-99 -27 -28 -49 -57 -49 -64 0 -10 66 -13 340 -13 387 0 372 -4 296 81 -74 82
-71 43 -71 1034 l0 880 24 74 c32 97 101 201 188 281 86 80 157 123 270 163
82 29 97 31 228 32 186 0 252 -21 371 -122 105 -87 171 -224 205 -422 19 -113
20 -155 17 -967 -3 -955 2 -894 -80 -965 -29 -25 -39 -41 -35 -53 6 -15 36
-16 339 -14 324 3 333 4 336 23 1 13 -9 27 -32 42 -18 12 -43 41 -54 65 -39
80 -44 188 -37 733 9 697 -11 1023 -71 1201 -82 242 -268 434 -502 518 -368
132 -832 17 -1038 -257 -53 -70 -81 -124 -115 -217 l-24 -65 -6 425 -5 425
-27 88 c-67 218 -169 370 -327 491 -109 84 -260 153 -394 182 -72 16 -267 26
-321 18z"/>
<path d="M27816 18764 c-3 -9 -6 -46 -6 -82 0 -81 -23 -236 -46 -312 -58 -195
-189 -319 -354 -338 -36 -4 -65 -12 -68 -19 -3 -10 30 -13 142 -13 l145 0 4
-922 c4 -989 4 -983 56 -1153 108 -349 366 -534 746 -534 220 -1 413 83 566
247 l71 76 21 -29 c36 -53 150 -160 201 -190 176 -103 466 -134 661 -71 129
42 219 98 318 197 79 80 87 92 87 126 l0 38 -18 -26 c-72 -106 -186 -204 -280
-239 -193 -72 -416 -33 -527 93 -62 69 -122 196 -148 309 -20 91 -21 118 -24
1086 l-4 992 171 0 c133 0 171 3 168 13 -4 9 -98 13 -414 15 -381 3 -405 4
-354 18 226 60 436 250 527 476 27 67 58 221 49 244 -5 12 -40 14 -203 12
l-198 -3 -2 -45 c-12 -211 -45 -376 -99 -482 -34 -68 -111 -148 -176 -184
l-53 -29 -595 -2 c-528 -1 -589 0 -538 12 120 30 256 115 364 226 120 125 194
280 210 437 l7 72 -201 0 c-173 0 -201 -2 -206 -16z m1115 -1719 c4 -682 9
-964 17 -1000 19 -77 41 -143 74 -222 l30 -72 -37 -52 c-114 -154 -323 -237
-526 -209 -226 31 -363 208 -410 525 -12 83 -26 1942 -15 1971 5 12 68 14 433
12 l428 -3 6 -950z"/>
<path d="M31833 18040 c-321 -27 -628 -165 -866 -390 -186 -176 -326 -423
-386 -680 -85 -363 -31 -753 145 -1051 160 -269 415 -454 740 -536 101 -26
123 -28 294 -27 261 2 400 32 616 134 158 74 266 150 389 274 278 279 425 635
425 1029 0 692 -430 1184 -1085 1247 -119 11 -135 11 -272 0z m230 -66 c141
-31 257 -103 384 -237 85 -90 135 -162 196 -283 134 -268 203 -626 178 -936
-41 -522 -230 -866 -562 -1022 -115 -55 -177 -68 -345 -73 -131 -5 -161 -3
-235 16 -377 95 -647 454 -740 987 -27 154 -36 408 -19 540 67 542 381 931
815 1012 82 16 249 14 328 -4z"/>
<path d="M8670 17985 c-129 -30 -245 -57 -257 -60 -37 -9 -28 -40 16 -57 21
-9 47 -28 57 -44 18 -27 19 -74 19 -1114 0 -1225 3 -1170 -71 -1248 -24 -25
-44 -52 -44 -59 0 -10 65 -13 340 -13 378 0 375 -1 303 63 -20 18 -44 50 -54
72 -35 79 -39 218 -39 1381 0 1074 -1 1134 -17 1133 -10 0 -124 -25 -253 -54z"/>
<path d="M20305 18030 c-253 -40 -466 -152 -598 -315 -63 -78 -126 -208 -140
-290 -6 -36 -14 -65 -17 -65 -3 0 -14 30 -24 68 -62 214 -234 426 -421 518
-262 128 -610 91 -885 -96 -103 -70 -237 -187 -302 -264 l-63 -74 -6 112 c-4
61 -7 178 -8 259 l-1 148 -32 -6 c-18 -4 -141 -32 -273 -64 -261 -63 -285 -75
-206 -107 78 -31 76 -18 79 -478 l3 -409 -33 -34 c-46 -48 -150 -124 -229
-167 -63 -35 -183 -86 -201 -86 -4 0 -8 51 -8 113 0 338 -136 674 -365 902
-187 187 -411 297 -665 326 -226 25 -400 -17 -560 -138 -111 -83 -205 -226
-231 -352 -19 -90 -7 -272 24 -353 92 -252 348 -449 697 -538 379 -97 843 -89
1139 19 236 86 412 234 732 616 161 191 311 345 414 423 82 61 266 154 345
173 33 9 110 14 190 14 128 0 138 -2 195 -30 117 -56 223 -192 265 -340 38
-135 41 -219 38 -1085 -3 -694 -6 -842 -18 -875 -8 -22 -36 -62 -63 -88 -81
-79 -87 -77 298 -77 303 0 336 2 342 17 4 11 -5 25 -31 46 -51 41 -73 90 -85
188 -16 131 -34 1586 -21 1687 45 347 355 612 716 612 116 0 181 -13 264 -54
168 -81 271 -257 311 -531 8 -54 13 -333 16 -849 5 -927 4 -950 -81 -1044 -68
-75 -78 -72 299 -72 316 0 335 1 335 18 0 10 -18 35 -40 57 -76 75 -73 41 -81
865 -6 780 -10 848 -60 1045 -87 342 -307 580 -591 639 -96 20 -284 28 -363
16z m-4380 -100 c268 -103 504 -459 594 -895 24 -118 51 -318 51 -379 0 -54
-5 -56 -156 -56 -309 0 -643 69 -860 178 -175 88 -328 232 -378 357 -50 126
-54 304 -8 436 61 174 185 301 355 361 78 27 89 29 212 25 105 -3 141 -8 190
-27z"/>
<path d="M12883 18005 c-379 -69 -641 -334 -660 -669 -9 -169 35 -300 141
-414 135 -145 337 -259 696 -392 462 -172 662 -291 735 -436 28 -55 30 -67 30
-169 0 -103 -2 -114 -32 -177 -38 -82 -104 -154 -192 -212 -122 -81 -246 -116
-412 -116 -278 0 -516 97 -796 324 -18 15 -34 22 -38 17 -6 -11 101 -103 190
-162 77 -52 242 -132 325 -159 114 -36 243 -52 380 -47 231 9 395 72 525 202
80 80 123 154 157 270 32 115 33 338 1 440 -29 91 -82 173 -168 257 -139 137
-302 228 -647 359 -449 171 -640 288 -709 434 -25 51 -29 72 -29 143 0 144 59
257 181 347 113 83 236 126 421 146 113 12 201 2 319 -37 204 -67 368 -234
410 -416 8 -33 19 -58 26 -58 18 0 17 7 -12 98 -28 87 -82 178 -141 234 -177
166 -443 240 -701 193z"/>
<path d="M15065 17886 c-274 -131 -533 -421 -655 -732 -149 -381 -144 -771 15
-1121 76 -165 225 -351 375 -464 91 -70 266 -154 385 -185 145 -39 388 -45
563 -15 292 49 535 169 739 364 210 201 352 454 414 740 11 49 18 91 17 92 -2
2 -45 -8 -97 -21 -52 -13 -131 -27 -176 -30 l-82 -7 -6 -96 c-17 -296 -135
-571 -324 -752 -117 -113 -224 -175 -368 -215 -56 -15 -103 -19 -240 -19 -191
0 -257 14 -387 82 -78 41 -215 164 -283 256 -57 75 -155 273 -189 382 -101
320 -123 722 -59 1050 56 289 222 574 405 697 75 51 70 50 -47 -6z"/>
<path d="M17808 17251 c-18 -21 -115 -126 -215 -234 l-183 -196 0 -579 c0
-370 -4 -600 -11 -638 -12 -68 -47 -134 -84 -158 -14 -9 -25 -25 -25 -36 0
-20 8 -20 340 -20 326 0 340 1 340 19 0 10 -11 26 -25 35 -45 29 -75 89 -92
177 -13 73 -14 190 -8 877 3 435 4 792 1 792 -2 0 -19 -17 -38 -39z"/>
</g>
</svg>
